<svg width="25" height="40" viewBox="0 0 25 40" fill="none" xmlns="http://www.w3.org/2000/svg">
<path d="M22.5436 39.0884C22.5436 35.7516 21.0514 32.6117 16.5333 32.6117H3.1343L3.1861 32.5081H3.1343C3.2897 28.9122 4.3156 26.1868 6.9892 24.8604C3.2379 23.2128 0.667999 19.6169 0.667999 15.3578C0.667999 8.5288 6.212 4.6221 12.4815 4.6221H16.0773C18.9582 4.6221 19.8804 2.6739 19.8804 0.50806H20.9063C20.8545 2.4044 20.3882 3.793 19.2587 4.6221H22.6991V6.6221C22.6991 6.6221 17.7146 6.5702 17.1032 6.5702C20.4918 7.8034 22.9582 11.3993 22.9582 15.3578C22.9582 21.3164 18.0773 25.8863 11.8597 25.8863H10.6783C6.9789 25.8863 5.3415 28.0418 4.8752 30.6635H15.4037C18.326 30.6635 19.2587 28.7153 19.2587 26.5495H20.2846C20.1809 28.6532 19.6214 30.0936 18.2328 30.9122C22.44 31.7827 23.9322 34.7154 24.1395 39.0781H22.5436V39.0884ZM11.8079 6.5806C6.7716 6.5806 2.668 10.4873 2.668 15.2646C2.668 18.705 4.7716 21.6791 7.8079 23.0677C7.2897 22.249 7.041 21.1713 6.9892 19.7827H8.0151C8.0151 21.9381 8.9374 23.9381 11.7664 23.9381H11.8182C16.8545 23.9381 20.9582 20.0832 20.9582 15.2542C20.9582 10.477 16.8442 6.5806 11.8079 6.5806Z" fill="#424928"/>
</svg>
